inDegrees=no
num_controls=7
num_derivatives=13
num_iterations=162
num_multipliers=7
num_parameters=0
num_slacks=7
num_states=26
objective=0.431693
objective_accelerations=0.049175
objective_balance=0.006764
objective_effort=0.030804
objective_height=0.343765
objective_ligament=0.001184
solver_duration=2018.780741
status=Solve_Succeeded
success=true
DataType=double
version=3
OpenSimVersion=4.5
endheader
time	/jointset/ground_pelvis/pelvis_tilt/value	/jointset/ground_pelvis/pelvis_tx/value	/jointset/ground_pelvis/pelvis_ty/value	/jointset/hip_l/hip_flexion_l/value	/jointset/hip_l/hip_adduction_l/value	/jointset/hip_l/hip_rotation_l/value	/jointset/back/lumbar_extension/value	/jointset/patellofemoral_l/patellar_flexion_l/value	/jointset/knee_l/knee_flexion_l/value	/jointset/knee_l/knee_adduction_l/value	/jointset/knee_l/knee_rotation_l/value	/jointset/ankle_l/ankle_angle_l/value	/jointset/subtalar_l/subtalar_angle_l/value	/jointset/ground_pelvis/pelvis_tilt/speed	/jointset/ground_pelvis/pelvis_tx/speed	/jointset/ground_pelvis/pelvis_ty/speed	/jointset/hip_l/hip_flexion_l/speed	/jointset/hip_l/hip_adduction_l/speed	/jointset/hip_l/hip_rotation_l/speed	/jointset/back/lumbar_extension/speed	/jointset/patellofemoral_l/patellar_flexion_l/speed	/jointset/knee_l/knee_flexion_l/speed	/jointset/knee_l/knee_adduction_l/speed	/jointset/knee_l/knee_rotation_l/speed	/jointset/ankle_l/ankle_angle_l/speed	/jointset/subtalar_l/subtalar_angle_l/speed	/forceset/tau_hip_flexion_l	/forceset/tau_hip_adduction_l	/forceset/tau_hip_rotation_l	/forceset/tau_knee_flexion_l	/forceset/tau_ankle_angle_l	/forceset/tau_subtalar_angle_l	/forceset/tau_lumbar_extension	lambda_cid13_p0	lambda_cid13_p1	lambda_cid13_p2	lambda_cid13_p3	lambda_cid13_p4	lambda_cid13_p5	lambda_cid14_p0	/jointset/ground_pelvis/pelvis_tilt/accel	/jointset/ground_pelvis/pelvis_tx/accel	/jointset/ground_pelvis/pelvis_ty/accel	/jointset/hip_l/hip_flexion_l/accel	/jointset/hip_l/hip_adduction_l/accel	/jointset/hip_l/hip_rotation_l/accel	/jointset/back/lumbar_extension/accel	/jointset/patellofemoral_l/patellar_flexion_l/accel	/jointset/knee_l/knee_flexion_l/accel	/jointset/knee_l/knee_adduction_l/accel	/jointset/knee_l/knee_rotation_l/accel	/jointset/ankle_l/ankle_angle_l/accel	/jointset/subtalar_l/subtalar_angle_l/accel	gamma_cid13_p0	gamma_cid13_p1	gamma_cid13_p2	gamma_cid13_p3	gamma_cid13_p4	gamma_cid13_p5	gamma_cid14_p0
1.5	-0.3343453200785896	-0.02940232681775635	0.7678172570947316	1.160996820153942	-0.3052215981299395	0.007205085935928255	-0.3374939609637475	0.8078045996762636	0.8078045996762763	-0.1733736621558334	0.1675754736810456	0.1621268907593628	-0.01994396334197373	0.4219697951880155	0.1543038659597852	0.4930459717300631	-2.062030505473884	-0.009264256851961396	-0.6878762987318237	0.5737483763587133	-2.063557236785606	-2.063557236785611	0.006300805739496578	-0.04149104740171802	-0.5449156736818807	-0.1001722187458626	-0.1925883513710173	0.02154703137775175	-0.02579026048423175	-0.2525491849234223	0.09584509844129091	0.03857660460368772	0.1915664760929713	-7.485437487412328	-18.20116768549151	5.649637658898422	-1.748164062671002	-607.8855512380119	-58.7888602854571	-21.05969273195401	0.4984712926885675	0.5346638626062197	-0.3962869633589339	-1.33380204202459	0.6635869073527251	-0.3577976468223164	1.619890894426964	-1.342895465230472	-1.342895465230472	0.04676789035083313	-0.09706288391636843	-0.5246677990910218	0.6842822088874918	3.990331458568493e-07	4.026829520919764e-07	-2.463096351555016e-06	-2.688785443421513e-07	4.679080497699574e-07	2.839938455825826e-07	3.841640520932882e-07
1.51	-0.3301008241990374	-0.02783266249629734	0.7727269179512894	1.140311808921253	-0.3052821181146284	0.000311169757095455	-0.3316766108799826	0.7871041296138649	0.7871041296138771	-0.1733119966637423	0.1671556703891273	0.1566519234876806	-0.02091284948282005	0.4268744144416214	0.1596132983616439	0.4887849894687337	-2.074687507204775	-0.002818168302630868	-0.6908441580025025	0.5896507234639592	-2.076237411764889	-2.076237411764887	0.006045611304234423	-0.04244485521075449	-0.5499802737578486	-0.0935846028204481	-0.1866075744568662	0.02105049956178156	-0.02563222860322916	-0.2496556011352291	0.09737533517385441	0.03837112121893096	0.1865630692758066	-6.778493637529549	-18.32726535759663	5.77432180919692	-1.972593921170928	-603.7386961969353	-59.02269919691297	-22.31378426602303	0.4782517619564921	0.526672071493608	-0.4560798624927086	-1.188961625458332	0.6386955490038858	-0.2564834602052262	1.564769079028572	-1.185758164132914	-1.185758164131806	-0.05968954050614071	-0.09030941645940727	-0.4827405062158682	0.6492829722628461	4.31569366040185e-07	5.016550368887281e-07	-2.57571332914737e-06	-2.757630629337067e-07	5.072781424971505e-07	3.790207085880896e-07	4.086052716566397e-07
1.52	-0.3258089232228971	-0.02621038602231616	0.7775909537842393	1.119508765193888	-0.3052774620697678	-0.006610465693047044	-0.3257023648330742	0.7662858218717022	0.766285821871714	-0.173252488402012	0.1667271750817061	0.1511292333363654	-0.02181520312683335	0.4314508145056233	0.1648262964642188	0.483920967008494	-2.085637004409146	0.003770949057924549	-0.6934201529937635	0.6051275689874128	-2.087124772738399	-2.087124772738389	0.005869359667312664	-0.04322945050227718	-0.5544602496084636	-0.08686571937925666	-0.180626797542715	0.02055396774581133	-0.02547419672222674	-0.2467620173470358	0.09890557190641792	0.03816563783417419	0.1815596624586419	-6.075452012058268	-18.45501208079256	5.901934784714566	-2.219411405163932	-599.6806157865277	-59.3434094414352	-23.56240825965433	0.4328274547677927	0.5153770027494384	-0.5168950031409616	-0.9923011367206311	0.692192669597703	-0.2794247909387204	1.534790578068545	-0.9843326640757101	-0.9843326640757594	0.06255645001891216	-0.06322038041374969	-0.4077429540204047	0.7105357120428927	4.825910293052844e-07	5.854011117561457e-07	-2.800980001914101e-06	-2.993548927924102e-07	5.657934045634573e-07	4.822583490881683e-07	4.475660465545652e-07
1.53	-0.3214728701035077	-0.02453652915795919	0.7824034124221233	1.098604610044666	-0.3052065620121169	-0.01355490530805184	-0.3195757670354126	0.7453673289971062	0.7453673289971112	-0.1731955135639129	0.1662910399053376	0.14556451625488	-0.02265014466502328	0.4356980590008384	0.1699217444202344	0.4784749901702945	-2.094895978554984	0.01042687947054384	-0.6953573560652914	0.6201023972461771	-2.096271797854814	-2.096271797854812	0.005518377844919251	-0.04401418311776531	-0.5583833151029752	-0.08010630876445485	-0.1745148891940036	0.01988284075894136	-0.02524952352198162	-0.2440365744343221	0.1005113380337106	0.03776298042934364	0.1764202411251085	-5.361559649610473	-18.49161036836829	6.006543614320187	-2.388108475933877	-595.7059980764716	-59.55053954366443	-24.80398733854215	0.4114627399090277	0.5030563276771951	-0.5726772105028044	-0.8479191594692543	0.6553929061560588	-0.1338243067944666	1.465389954969444	-0.834693000636855	-0.8346930006378386	-0.08506004306130599	-0.0879405909444303	-0.3696205155137823	0.6613657019294087	5.532534758447575e-07	6.52969551073646e-07	-3.145936975803606e-06	-3.406982408724583e-07	6.44650409052572e-07	5.942199406762295e-07	5.019538489954754e-07
1.54	-0.3170961865805639	-0.02281243228691215	0.7871585656543566	1.077616820432794	-0.3050684827145273	-0.02051530820207882	-0.3133021087541255	0.7243664047583035	0.7243664047583016	-0.1731422754529764	0.1658466892250485	0.1399635620847799	-0.02341694770391907	0.43957689521648	0.1748742978022309	0.4724598858783605	-2.102363896938974	0.01720679704564383	-0.6966128087982048	0.6345396657125041	-2.103611045579726	-2.10361104557973	0.005122014234812319	-0.0448725512863769	-0.5617076673313767	-0.07323801952042963	-0.1684029808452921	0.01921171377207142	-0.02502485032173709	-0.2413111315216083	0.1021171041610032	0.03736032302451316	0.1712808197915749	-4.649527921581818	-18.53186116391179	6.116281329488678	-2.59350739216435	-591.7960753811927	-59.86142024847292	-26.0375376933088	0.3591457988530994	0.4867980879456169	-0.6307204938878674	-0.6340899843507074	0.7169901020938434	-0.1430747232157962	1.427278619581049	-0.622777185774904	-0.622777185774902	0.05348009247620814	-0.07794749103844879	-0.2880003007983812	0.732311437887579	5.606435435019103e-07	8.343994736588922e-07	-3.131086408961817e-06	-3.206641818558415e-07	6.684385293820561e-07	7.030572935552024e-07	5.137624645957267e-07
1.55	-0.3126825697778933	-0.0210395503740361	0.7918507958880027	1.056563286721218	-0.3048620877913711	-0.0274861622648888	-0.3068869659136936	0.7033013312106612	0.7033013312106652	-0.1730924779132467	0.1653943969766416	0.1343324314362676	-0.0241146064055236	0.443080908353432	0.1796754206154419	0.4658971037890256	-2.108040718935281	0.02406893421836809	-0.6974327274636338	0.6483817558872754	-2.109094071666237	-2.109094071666243	0.004796685991790534	-0.04559625176176748	-0.5644147220132751	-0.06630019206793557	-0.1620910369667504	0.01805256853998766	-0.02477353563951492	-0.2390134093084667	0.1041667738169858	0.03688236381691965	0.1659860991047456	-3.807484622090977	-18.56181722907032	6.223969950383125	-2.851994285148063	-588.0390176196229	-60.23856931425821	-27.2625549824149	0.3362380301968364	0.4727338553443319	-0.682294276945691	-0.4891032467320632	0.6705690733190697	-0.03221843814017365	1.346602243436574	-0.4647176413142987	-0.4647176413145071	-0.0815806652770024	-0.07064104032982703	-0.2464860254521005	0.6736265994080015	4.951328267946548e-07	1.147017626965665e-06	-2.701674979973125e-06	-2.299126755322017e-07	6.287777179624041e-07	8.082949800954436e-07	4.765124518795693e-07
1.56	-0.3082358710520372	-0.01921946433756083	0.7964747508586576	1.035462059801788	-0.3045871227867962	-0.03446136911433975	-0.3003366165661118	0.6821906969379088	0.6821906969379186	-0.1730471419324643	0.1649346557805725	0.128677344646223	-0.02474306519250765	0.4461932798536074	0.1843151225220727	0.4588048332801149	-2.111902538510042	0.03092081332939485	-0.6974833661264112	0.6615809671425019	-2.112723190601749	-2.112723190601756	0.004229702445365458	-0.04636234081877898	-0.5664988956378342	-0.05939803659633416	-0.1557790930882086	0.01689342330790404	-0.02452222095729387	-0.2367156870953248	0.1062164434729685	0.03640440460932635	0.1606913784179163	-2.966871284629785	-18.59448124883272	6.335471136469284	-3.14279217940545	-584.3390111650565	-60.70486788387096	-28.47390944352914	0.2808174714977831	0.4545139066295968	-0.7366181778030511	-0.2710895000414292	0.7149384897543426	0.0107812773145769	1.298702835672026	-0.2519957555749147	-0.2519957555748853	0.005149031795549965	-0.08642520736286742	-0.1634240893304598	0.7251770417090523	4.0029432870613e-07	1.45772886018194e-06	-2.165946218125542e-06	-1.191818770380448e-07	5.557479066867439e-07	8.765183022837053e-07	4.233217835985422e-07
1.57	-0.3037601140828647	-0.01735390951945274	0.8010251554419147	1.01433175745046	-0.3042433524366653	-0.04143520439025015	-0.2936576015847927	0.6610536939014489	0.6610536939014512	-0.1730067578585478	0.1644683244804234	0.1230047306472464	-0.02530223560298767	0.4488896906825198	0.1887560436689107	0.4511926540104441	-2.113831959062467	0.03783012667437847	-0.6971640904143224	0.6740905202600034	-2.114348614846437	-2.114348614846436	0.003825625691320765	-0.04690942617000526	-0.5679207060510457	-0.05244177825856193	-0.1494887262982005	0.01586699532254131	-0.02425794825225118	-0.2342705295354245	0.1079211987699369	0.0356232565747583	0.155353144953554	-2.254537597156122	-18.46191128625752	6.407951421216558	-3.222930449844668	-580.7221817509974	-60.87171875649321	-29.65585999374792	0.2538104508111288	0.432930535349996	-0.7859572169126202	-0.1049451216261862	0.6784200386833387	0.06077211005791469	1.207355220591601	-0.06855710393057815	-0.0685571039295456	-0.06616242239201865	-0.03942271460121369	-0.1160527158887864	0.6798141947845555	2.687961038910192e-07	1.766056443285093e-06	-1.497320790204346e-06	1.652303666925827e-08	4.41006845591074e-07	8.984736690319931e-07	3.502052958614284e-07
1.58	-0.2992594414929585	-0.01544513562654846	0.8054969503494023	0.9931919455358507	-0.303830590496722	-0.04840219263065929	-0.286857436338138	0.639910288353539	0.6399102883535341	-0.1729710098308492	0.1639964078236423	0.1173209999044232	-0.02579205063709533	0.4511764040003589	0.192958937481311	0.4430828981262325	-2.113804451166217	0.04471913129188085	-0.6961139590261578	0.6858110202096014	-2.11400369289172	-2.114003692891713	0.003302493201774477	-0.04747941214517992	-0.5687222444071486	-0.04552696132185975	-0.1431983595081926	0.01484056733717855	-0.02399367554720824	-0.2318253719755244	0.1096259540669054	0.03484210854019019	0.1500149114891916	-1.549632278995607	-18.33054858638011	6.483489551257789	-3.302962314640596	-577.2388181479211	-61.11000478827096	-30.80161589358183	0.1988779692831431	0.4069084397420488	-0.8361335007111819	0.1202961896936005	0.7108767442580969	0.1569524125297464	1.140892202091417	0.1420734843058771	0.1420734843058938	-0.01866211530476879	-0.0910053321525557	-0.03936967790871478	0.7168887614950428	1.840269727514564e-07	1.987398908272324e-06	-1.079427823351254e-06	1.045696610894738e-07	3.725847912462079e-07	9.255804312713426e-07	3.058607728177446e-07
1.59	-0.2947380356716592	-0.01349556790832046	0.8098852363855149	0.972062309891344	-0.3033491148559197	-0.05535553695144119	-0.2799442157903627	0.6187803593609592	0.6187803593609529	-0.1729408229146265	0.1635190894975238	0.1116324206688298	-0.02621296391310728	0.4530259103410534	0.1969095661259478	0.4344984659993525	-2.111778658663738	0.05156404667383044	-0.6944485535636218	0.6966816171450659	-2.111636536065534	-2.11163653606553	0.002722904577833347	-0.0479736337451598	-0.5688840429850186	-0.03866810490982899	-0.1366598511927768	0.01338382089236853	-0.0238107783285628	-0.229800669602377	0.1119034535791923	0.03400833466233678	0.1444907491418556	-0.6716212927825066	-18.20684698849245	6.560484794370614	-3.486960841791962	-573.9064142319831	-61.43003633005541	-31.90477300236162	0.1661757990123753	0.3824124437291119	-0.8809017911436859	0.2953454463785862	0.6694153565206078	0.1876143689953842	1.037422609213389	0.3358127341378265	0.3358127341373963	-0.07912045062207612	-0.02680534357361188	0.01187776204129401	0.6682955326287946	1.626758973144196e-07	2.090690141530809e-06	-1.001814625090569e-06	1.279371786200739e-07	3.670242460631434e-07	9.596783731057041e-07	3.00563916143714e-07
